<svg width="22" height="22" viewBox="0 0 22 22" fill="none" xmlns="http://www.w3.org/2000/svg">
<path d="M21.0938 6.25H0.78125C0.57405 6.25 0.375336 6.33231 0.228823 6.47882C0.08231 6.62534 0 6.82405 0 7.03125L0 8.59375C0 8.80095 0.08231 8.99966 0.228823 9.14618C0.375336 9.29269 0.57405 9.375 0.78125 9.375H21.0938C21.301 9.375 21.4997 9.29269 21.6462 9.14618C21.7927 8.99966 21.875 8.80095 21.875 8.59375V7.03125C21.875 6.82405 21.7927 6.62534 21.6462 6.47882C21.4997 6.33231 21.301 6.25 21.0938 6.25ZM21.0938 18.75H0.78125C0.57405 18.75 0.375336 18.8323 0.228823 18.9788C0.08231 19.1253 0 19.324 0 19.5312L0 21.0938C0 21.301 0.08231 21.4997 0.228823 21.6462C0.375336 21.7927 0.57405 21.875 0.78125 21.875H21.0938C21.301 21.875 21.4997 21.7927 21.6462 21.6462C21.7927 21.4997 21.875 21.301 21.875 21.0938V19.5312C21.875 19.324 21.7927 19.1253 21.6462 18.9788C21.4997 18.8323 21.301 18.75 21.0938 18.75ZM5.27832 3.125H16.5972C16.6747 3.125 16.7515 3.10971 16.8232 3.08002C16.8948 3.05032 16.9599 3.00679 17.0148 2.95192C17.0696 2.89705 17.1131 2.83192 17.1427 2.76024C17.1723 2.68856 17.1876 2.61174 17.1875 2.53418V0.590332C17.1875 0.512809 17.1722 0.436044 17.1426 0.364422C17.1129 0.2928 17.0694 0.227722 17.0146 0.172905C16.9598 0.118087 16.8947 0.0746035 16.8231 0.0449365C16.7515 0.0152696 16.6747 2.01955e-07 16.5972 2.01955e-07H5.27832C5.20076 -6.39541e-05 5.12394 0.015158 5.05226 0.0447963C4.98058 0.0744345 4.91545 0.117908 4.86058 0.172732C4.80571 0.227555 4.76218 0.292655 4.73248 0.364309C4.70279 0.435963 4.6875 0.512768 4.6875 0.590332V2.53418C4.6875 2.69088 4.74975 2.84115 4.86055 2.95195C4.97135 3.06275 5.12162 3.125 5.27832 3.125ZM16.5972 15.625C16.6747 15.625 16.7515 15.6097 16.8232 15.58C16.8948 15.5503 16.9599 15.5068 17.0148 15.4519C17.0696 15.3971 17.1131 15.3319 17.1427 15.2602C17.1723 15.1886 17.1876 15.1117 17.1875 15.0342V13.0903C17.1875 12.9338 17.1253 12.7836 17.0146 12.6729C16.9039 12.5622 16.7537 12.5 16.5972 12.5H5.27832C5.20076 12.4999 5.12394 12.5152 5.05226 12.5448C4.98058 12.5744 4.91545 12.6179 4.86058 12.6727C4.80571 12.7276 4.76218 12.7927 4.73248 12.8643C4.70279 12.936 4.6875 13.0128 4.6875 13.0903V15.0342C4.6875 15.1118 4.70278 15.1886 4.73247 15.2603C4.76217 15.332 4.80568 15.3971 4.86055 15.452C4.91541 15.5068 4.98054 15.5503 5.05222 15.58C5.1239 15.6097 5.20073 15.625 5.27832 15.625H16.5972Z" fill="#EDBC02"/>
</svg>
