<svg width="22" height="22" viewBox="0 0 22 22" fill="none" xmlns="http://www.w3.org/2000/svg">
<path d="M21.6906 16.7148C22.1031 17.1273 22.1031 17.7977 21.6906 18.2102L18.2102 21.6906C17.7977 22.1031 17.1273 22.1031 16.7148 21.6906L11 15.9242L5.28516 21.6906C4.87266 22.1031 4.20234 22.1031 3.78984 21.6906L0.309375 18.2102C-0.103125 17.7977 -0.103125 17.1273 0.309375 16.7148L6.07578 11L0.309375 5.28516C-0.103125 4.87266 -0.103125 4.20234 0.309375 3.78984L3.78984 0.309375C4.20234 -0.103125 4.87266 -0.103125 5.28516 0.309375L11 6.07578L16.7148 0.309375C17.1273 -0.103125 17.7977 -0.103125 18.2102 0.309375L21.6906 3.78984C22.1031 4.20234 22.1031 4.87266 21.6906 5.28516L15.9242 11L21.6906 16.7148Z" fill="#8D8D8D"/>
</svg>
