<svg width="30" height="30" viewBox="0 0 30 30" fill="none" xmlns="http://www.w3.org/2000/svg">
<circle cx="15" cy="15" r="14.5" stroke="#EDBC02"/>
<path d="M23.7469 19.6758C24.0844 20.0133 24.0844 20.5617 23.7469 20.8992L20.8992 23.7469C20.5617 24.0844 20.0133 24.0844 19.6758 23.7469L15 19.0289L10.3242 23.7469C9.98672 24.0844 9.43828 24.0844 9.10078 23.7469L6.25313 20.8992C5.91562 20.5617 5.91562 20.0133 6.25313 19.6758L10.9711 15L6.25313 10.3242C5.91562 9.98672 5.91562 9.43828 6.25313 9.10078L9.10078 6.25313C9.43828 5.91562 9.98672 5.91562 10.3242 6.25313L15 10.9711L19.6758 6.25313C20.0133 5.91562 20.5617 5.91562 20.8992 6.25313L23.7469 9.10078C24.0844 9.43828 24.0844 9.98672 23.7469 10.3242L19.0289 15L23.7469 19.6758Z" fill="#EDBC02"/>
</svg>
