<svg width="30" height="30" viewBox="0 0 30 30" fill="none" xmlns="http://www.w3.org/2000/svg">
<circle cx="15" cy="15" r="14.5" stroke="#9E9E9E"/>
<path d="M9.22844 14.8194C9.10813 14.4034 8.96031 13.6781 8.96031 13.6781H8.94313C8.94313 13.6781 8.79531 14.4034 8.675 14.8194L8.29344 16.1084H9.60313L9.22844 14.8194ZM25.175 10H15.55V21H25.175C25.6322 21 26 20.6322 26 20.175V10.825C26 10.3678 25.6322 10 25.175 10ZM24.35 14.125C24.35 14.3519 24.1644 14.5375 23.9375 14.5375H23.5456C23.3084 15.3488 22.7997 16.1669 22.0778 16.9403C22.3666 17.1603 22.6656 17.37 22.975 17.5591C23.1641 17.6759 23.2259 17.92 23.1159 18.1159L22.8444 18.5938C22.7275 18.7966 22.4697 18.8619 22.2703 18.7416C21.8372 18.4734 21.4281 18.1881 21.0534 17.8856C20.6788 18.1847 20.2731 18.4734 19.8366 18.7416C19.6372 18.8619 19.3794 18.7966 19.2625 18.5938L18.9909 18.1159C18.8809 17.9234 18.9428 17.6759 19.1353 17.5591C19.455 17.3631 19.7541 17.1569 20.0325 16.9403C19.7609 16.6516 19.5203 16.3559 19.3106 16.0569C19.1731 15.8609 19.235 15.5894 19.4378 15.4691L19.6613 15.335L19.9122 15.1872C20.0978 15.0772 20.3384 15.1288 20.4622 15.3041C20.6341 15.5447 20.8334 15.7853 21.0603 16.0225C21.5244 15.5344 21.8784 15.0291 22.0916 14.5375H18.1625C17.9356 14.5375 17.75 14.3519 17.75 14.125V13.575C17.75 13.3481 17.9356 13.1625 18.1625 13.1625H20.3625V12.6125C20.3625 12.3856 20.5481 12.2 20.775 12.2H21.325C21.5519 12.2 21.7375 12.3856 21.7375 12.6125V13.1625H23.9375C24.1644 13.1625 24.35 13.3481 24.35 13.575V14.125ZM4 10.825V20.175C4 20.6322 4.36781 21 4.825 21H14.45V10H4.825C4.36781 10 4 10.3678 4 10.825ZM6.02469 18.2534L8.00125 12.4406C8.05969 12.2722 8.21438 12.1622 8.39313 12.1622H9.51031C9.68563 12.1622 9.84375 12.2756 9.90219 12.4406L11.8787 18.2534C11.9681 18.5216 11.7722 18.8 11.4869 18.8H10.6997C10.6107 18.7999 10.5242 18.7711 10.4529 18.7178C10.3817 18.6646 10.3296 18.5897 10.3044 18.5044L9.98125 17.4078H7.91188L7.59906 18.5009C7.5475 18.6762 7.38594 18.8 7.20375 18.8H6.41656C6.13469 18.8 5.93531 18.5216 6.02469 18.2534Z" fill="#9E9E9E"/>
</svg>
