<svg width="30" height="30" viewBox="0 0 30 30" fill="none" xmlns="http://www.w3.org/2000/svg">
<circle cx="15" cy="15" r="14.5" stroke="#9E9E9E"/>
<path d="M15 16C17.4844 16 19.5 13.9844 19.5 11.5C19.5 9.01562 17.4844 7 15 7C12.5156 7 10.5 9.01562 10.5 11.5C10.5 13.9844 12.5156 16 15 16ZM19 17H17.2781C16.5844 17.3187 15.8125 17.5 15 17.5C14.1875 17.5 13.4187 17.3187 12.7219 17H11C8.79063 17 7 18.7906 7 21V21.5C7 22.3281 7.67188 23 8.5 23H21.5C22.3281 23 23 22.3281 23 21.5V21C23 18.7906 21.2094 17 19 17Z" fill="#9E9E9E"/>
</svg>
