<svg width="19" height="12" viewBox="0 0 19 12" fill="none" xmlns="http://www.w3.org/2000/svg">
<path d="M0.409091 12H1.81818V6.79545H8.02273V12H9.43182V0.363636H8.02273V5.54545H1.81818V0.363636H0.409091V12ZM11.2483 12H18.5892V10.75H13.1801V10.6591L15.7937 7.86364C17.7937 5.72159 18.3847 4.72159 18.3847 3.43182C18.3847 1.63636 16.9301 0.204545 14.8847 0.204545C12.8449 0.204545 11.2937 1.59091 11.2937 3.63636H12.6347C12.6347 2.3125 13.4926 1.43182 14.8392 1.43182C16.1006 1.43182 17.0665 2.20455 17.0665 3.43182C17.0665 4.50568 16.4358 5.30114 15.0892 6.77273L11.2483 10.9773V12Z" fill="#EDBC02"/>
</svg>
