<svg width="20" height="13" viewBox="0 0 20 13" fill="none" xmlns="http://www.w3.org/2000/svg">
<path d="M0.409091 12H1.81818V6.79545H8.02273V12H9.43182V0.363636H8.02273V5.54545H1.81818V0.363636H0.409091V12ZM15.1801 12.1591C17.4358 12.1591 19.1119 10.7443 19.1119 8.84091C19.1119 7.36364 18.2369 6.28977 16.771 6.04545V5.95455C17.9472 5.59659 18.6801 4.63068 18.6801 3.31818C18.6801 1.67045 17.379 0.204545 15.2256 0.204545C13.2142 0.204545 11.5437 1.44318 11.4756 3.27273H12.8392C12.8903 2.11364 13.9926 1.43182 15.2028 1.43182C16.4869 1.43182 17.3165 2.21023 17.3165 3.38636C17.3165 4.61364 16.3562 5.40909 14.9756 5.40909H14.0437V6.65909H14.9756C16.7426 6.65909 17.7256 7.55682 17.7256 8.84091C17.7256 10.0739 16.6517 10.9091 15.1574 10.9091C13.8108 10.9091 12.7426 10.2159 12.6574 9.09091H11.2256C11.3108 10.9205 12.9244 12.1591 15.1801 12.1591Z" fill="#EDBC02"/>
</svg>
