<svg width="30" height="30" viewBox="0 0 30 30" fill="none" xmlns="http://www.w3.org/2000/svg">
<circle cx="15" cy="15" r="14.5" stroke="#9E9E9E"/>
<path d="M25.0938 16.25H4.78125C4.57405 16.25 4.37534 16.3323 4.22882 16.4788C4.08231 16.6253 4 16.824 4 17.0312V18.5938C4 18.801 4.08231 18.9997 4.22882 19.1462C4.37534 19.2927 4.57405 19.375 4.78125 19.375H25.0938C25.301 19.375 25.4997 19.2927 25.6462 19.1462C25.7927 18.9997 25.875 18.801 25.875 18.5938V17.0312C25.875 16.824 25.7927 16.6253 25.6462 16.4788C25.4997 16.3323 25.301 16.25 25.0938 16.25ZM25.0938 10H4.78125C4.57405 10 4.37534 10.0823 4.22882 10.2288C4.08231 10.3753 4 10.574 4 10.7812V12.3438C4 12.551 4.08231 12.7497 4.22882 12.8962C4.37534 13.0427 4.57405 13.125 4.78125 13.125H25.0938C25.301 13.125 25.4997 13.0427 25.6462 12.8962C25.7927 12.7497 25.875 12.551 25.875 12.3438V10.7812C25.875 10.574 25.7927 10.3753 25.6462 10.2288C25.4997 10.0823 25.301 10 25.0938 10Z" fill="#9E9E9E"/>
</svg>
