<svg width="9" height="12" viewBox="0 0 9 12" fill="none" xmlns="http://www.w3.org/2000/svg">
<path d="M0.0113636 12H4.98295C7.59659 12 8.98864 10.6364 8.98864 8.78409C8.98864 7.0625 7.75568 6.02273 6.43182 5.96023V5.84659C7.64205 5.57386 8.53409 4.71591 8.53409 3.34659C8.53409 1.60227 7.23864 0.363636 4.67045 0.363636H0.0113636V12ZM2.47159 9.98864V6.89773H4.53409C5.71591 6.89773 6.44886 7.57955 6.44886 8.53977C6.44886 9.41477 5.85227 9.98864 4.47727 9.98864H2.47159ZM2.47159 5.23295V2.35227H4.34091C5.43182 2.35227 6.05114 2.91477 6.05114 3.75568C6.05114 4.67614 5.30114 5.23295 4.29545 5.23295H2.47159Z" fill="#EDBC02"/>
</svg>
